<svg width="621" height="693" viewBox="0 0 621 693" fill="none" xmlns="http://www.w3.org/2000/svg">
<path fill-rule="evenodd" clip-rule="evenodd" d="M310.6 0.0628195C364.715 2.05969 398.106 61.0196 446.545 85.2301C494.173 109.036 560.43 100.185 593.851 141.637C627.245 183.056 620.281 244.303 617.643 297.442C615.352 343.588 589.925 383.885 579.587 428.917C569.263 473.888 575.003 521.364 556.529 563.644C535.542 611.675 515.727 673.957 465.694 689.578C413.269 705.945 365.012 647.88 310.6 640.426C265.043 634.186 215.86 670.219 174.701 649.719C133.457 629.177 128.919 571.341 99.9495 535.51C70.756 499.402 16.4667 482.187 3.26073 437.671C-9.87301 393.398 20.1842 348.598 31.1969 303.751C42.05 259.554 44.4183 212.978 67.9952 174.052C92.8252 133.056 130.788 102.948 169.736 75.0157C213.506 43.6249 256.773 -1.9234 310.6 0.0628195Z" fill="url(#paint0_linear_1_2)"/>
<defs>
<linearGradient id="paint0_linear_1_2" x1="692" y1="539.5" x2="-133.5" y2="132" gradientUnits="userSpaceOnUse">
<stop stop-color="#FF00F3"/>
<stop offset="1" stop-color="#00E0FF"/>
</linearGradient>
</defs>
</svg>
